<svg width="120" height="120" viewBox="0 0 120 120" fill="none" xmlns="http://www.w3.org/2000/svg">
  <!-- Modern circular background -->
  <circle cx="60" cy="60" r="60" fill="black"/>

  <!-- Inner circle for depth -->
  <circle cx="60" cy="60" r="50" fill="#1a1a1a"/>

  <!-- Stylized RW monogram -->
  <!-- Letter R -->
  <path d="M42 75V45H55C60 45 64 49 64 54C64 57 62.5 59.5 60 61L66 75H60L55 63H48V75H42ZM48 58H55C57 58 58.5 56.5 58.5 54C58.5 51.5 57 50 55 50H48V58Z" fill="white"/>

  <!-- Letter W -->
  <path d="M68 45H73L77 65L81 45H84L88 65L92 45H97L91 75H86L82 55L78 75H73L68 45Z" fill="white"/>

  <!-- Accent dots for modern touch -->
  <circle cx="60" cy="35" r="2.5" fill="white" opacity="0.6"/>
  <circle cx="60" cy="85" r="2.5" fill="white" opacity="0.6"/>
</svg>
